<svg xmlns="http://www.w3.org/2000/svg" viewBox="0 0 343 92"><path d="M 0 72 L 0 2 L 2.2 2 L 2.2 35 L 5.6 35 L 40.2 2 L 43.2 2 L 7.6 36 L 43.2 72 L 40.2 72 L 5.6 37 L 2.2 37 L 2.2 72 L 0 72 Z M 260.9 72 L 260.9 0 L 263.1 0 L 263.1 45.7 L 269.1 45.7 L 292.6 22 L 295.6 22 L 270.9 46.7 L 296 72 L 293 72 L 269.1 47.7 L 263.1 47.7 L 263.1 72 L 260.9 72 Z M 211.3 59.5 L 213.3 58.9 A 18.993 18.993 0 0 0 214.209 62.21 A 14.381 14.381 0 0 0 215.85 65.35 A 10.999 10.999 0 0 0 219.908 68.848 A 13.68 13.68 0 0 0 221 69.35 Q 223.72 70.463 227.527 70.658 A 32.624 32.624 0 0 0 229.2 70.7 Q 233.906 70.7 237.193 69.564 A 12.237 12.237 0 0 0 241 67.5 A 10.665 10.665 0 0 0 243.863 63.978 A 10.419 10.419 0 0 0 244.9 59.3 Q 244.9 56.215 243.686 54.209 A 6.605 6.605 0 0 0 242.65 52.9 Q 240.4 50.7 236.85 49.55 Q 233.3 48.4 229.5 47.6 Q 227.3 47.1 224.3 46.4 Q 221.3 45.7 218.5 44.35 Q 215.7 43 213.8 40.65 A 8.151 8.151 0 0 1 212.264 37.516 Q 211.957 36.326 211.909 34.926 A 15.374 15.374 0 0 1 211.9 34.4 Q 211.9 30.5 214.1 27.5 Q 216.3 24.5 220.15 22.9 A 20.463 20.463 0 0 1 225.057 21.574 A 27.213 27.213 0 0 1 229 21.3 A 22.788 22.788 0 0 1 235.339 22.154 A 19.645 19.645 0 0 1 239.7 24 A 12.506 12.506 0 0 1 244.816 29.659 A 18.262 18.262 0 0 1 246 33 L 244.2 33.5 Q 243.225 30.008 241.36 27.901 A 9.525 9.525 0 0 0 240.45 27 A 14.113 14.113 0 0 0 236.998 24.776 A 12.602 12.602 0 0 0 234.9 24.05 A 25.041 25.041 0 0 0 230.87 23.373 A 21.678 21.678 0 0 0 229.1 23.3 A 24.898 24.898 0 0 0 224.614 23.681 Q 222.009 24.159 219.921 25.235 A 13.758 13.758 0 0 0 218.25 26.25 Q 214.1 29.2 214.1 34.3 A 10.486 10.486 0 0 0 214.311 36.463 Q 214.608 37.871 215.321 38.958 A 6.419 6.419 0 0 0 215.6 39.35 A 10.63 10.63 0 0 0 219.16 42.303 A 12.353 12.353 0 0 0 219.45 42.45 A 23.203 23.203 0 0 0 223.228 43.894 A 26.922 26.922 0 0 0 224.6 44.25 Q 227.4 44.9 230 45.4 Q 232.9 46 235.9 46.9 A 25.279 25.279 0 0 1 241.129 49.115 A 23.552 23.552 0 0 1 241.45 49.3 Q 244 50.8 245.55 53.25 Q 247.011 55.56 247.095 58.981 A 17.162 17.162 0 0 1 247.1 59.4 A 13.387 13.387 0 0 1 246.6 63.131 A 10.967 10.967 0 0 1 244.9 66.6 Q 242.7 69.6 238.65 71.15 Q 234.6 72.7 229.1 72.7 Q 223.521 72.7 219.59 70.938 A 15.062 15.062 0 0 1 217.2 69.6 A 12.82 12.82 0 0 1 213.033 64.712 Q 212.105 62.877 211.541 60.583 A 25.4 25.4 0 0 1 211.3 59.5 Z M 322.3 69.5 L 340.8 22 L 343 22 L 315.7 92 L 313.4 92 L 321.3 72 L 299.8 22 L 302 22 L 322.3 69.5 Z M 164 72 L 161.8 72 L 161.8 58.2 A 21.855 21.855 0 0 1 159.463 63.79 A 17.463 17.463 0 0 1 154.75 68.95 A 18.967 18.967 0 0 1 147.559 72.105 Q 144.869 72.695 141.749 72.7 A 33.172 33.172 0 0 1 141.7 72.7 Q 137.169 72.7 133.791 71.648 A 17.325 17.325 0 0 1 132.4 71.15 A 13.964 13.964 0 0 1 129.153 69.317 A 11.332 11.332 0 0 1 126.6 66.6 Q 124.6 63.6 124.6 59.2 Q 124.6 53 129.35 49.3 Q 133.903 45.754 143.278 44.596 A 62.154 62.154 0 0 1 144.1 44.5 L 161.8 42.5 L 161.8 37.9 A 20.151 20.151 0 0 0 161.379 33.647 Q 160.808 31 159.458 29.016 A 11.168 11.168 0 0 0 157.7 27 Q 153.6 23.3 146 23.3 A 25.82 25.82 0 0 0 140.966 23.764 Q 137.075 24.537 134.2 26.6 A 14.883 14.883 0 0 0 128.661 34.329 A 19.583 19.583 0 0 0 128.2 36 L 126.3 35.3 A 20.936 20.936 0 0 1 128.265 30.16 A 15.893 15.893 0 0 1 132.95 24.85 Q 137.472 21.607 144.457 21.327 A 33.507 33.507 0 0 1 145.8 21.3 A 29.636 29.636 0 0 1 151.055 21.736 Q 156.049 22.637 159.25 25.4 A 13.309 13.309 0 0 1 163.603 32.999 A 20.092 20.092 0 0 1 164 37.1 L 164 72 Z M 114.1 47 L 71.2 47 Q 71.3 54 73.95 59.35 A 21.554 21.554 0 0 0 78.044 65.12 A 19.579 19.579 0 0 0 81.25 67.7 A 18.852 18.852 0 0 0 90.421 70.653 A 23.041 23.041 0 0 0 91.9 70.7 A 25.755 25.755 0 0 0 98.199 69.961 A 20.473 20.473 0 0 0 104.05 67.5 A 18.677 18.677 0 0 0 111.595 58.412 A 22.115 22.115 0 0 0 111.6 58.4 L 113.4 59.1 Q 110.9 65.6 105.25 69.15 Q 99.6 72.7 91.9 72.7 A 23.713 23.713 0 0 1 85.141 71.769 A 20.192 20.192 0 0 1 79.95 69.4 A 22.072 22.072 0 0 1 72.464 61.283 A 26.549 26.549 0 0 1 71.9 60.2 A 27.862 27.862 0 0 1 69.408 52.086 A 36.794 36.794 0 0 1 69 46.5 Q 69 39.1 71.95 33.4 A 22.827 22.827 0 0 1 77.398 26.437 A 21.776 21.776 0 0 1 80.05 24.5 Q 85.2 21.3 91.9 21.3 A 24.524 24.524 0 0 1 98.613 22.189 A 20.975 20.975 0 0 1 103.3 24.15 Q 108.3 27 111.2 31.85 A 20.585 20.585 0 0 1 114.029 40.995 A 25.24 25.24 0 0 1 114.1 42.9 Q 114.1 43.526 114.14 44.472 A 72 72 0 0 0 114.15 44.7 A 16.395 16.395 0 0 1 114.167 45.444 Q 114.167 46.2 114.1 47 Z M 180.3 72 L 180.3 22 L 182.5 22 L 182.5 34 Q 183.7 30.2 186.65 27.1 A 18.058 18.058 0 0 1 193.784 22.524 A 20.905 20.905 0 0 1 193.85 22.5 A 16.066 16.066 0 0 1 198.557 21.616 Q 200.318 21.543 202.221 21.807 A 24.56 24.56 0 0 1 203.4 22 L 203.4 24.1 A 18.567 18.567 0 0 0 200.525 23.672 Q 197.73 23.484 195.2 24.25 Q 191.4 25.4 188.55 28.2 A 18.578 18.578 0 0 0 184.919 33.279 A 22.526 22.526 0 0 0 184.1 35.15 A 24.134 24.134 0 0 0 182.577 42.092 A 28.595 28.595 0 0 0 182.5 44.2 L 182.5 72 L 180.3 72 Z M 53.2 72 L 53.2 0.9 L 55.4 0.9 L 55.4 72 L 53.2 72 Z M 71.2 45 L 111.9 45 A 30.655 30.655 0 0 0 111.915 44.043 Q 111.915 38.23 109.65 33.7 Q 107.2 28.8 102.65 26.05 A 18.903 18.903 0 0 0 95.658 23.575 A 24.797 24.797 0 0 0 91.9 23.3 A 20.57 20.57 0 0 0 85.119 24.394 A 18.748 18.748 0 0 0 81.5 26.1 Q 76.9 28.9 74.15 33.8 A 23.021 23.021 0 0 0 71.459 41.937 A 28.436 28.436 0 0 0 71.2 45 Z M 161.8 48.9 L 161.8 44.6 L 144 46.5 A 51.409 51.409 0 0 0 139.297 47.216 Q 134.652 48.164 131.872 49.864 A 11.769 11.769 0 0 0 130.8 50.6 A 9.957 9.957 0 0 0 126.855 57.866 A 13.561 13.561 0 0 0 126.8 59.1 A 13.173 13.173 0 0 0 127.288 62.787 A 9.686 9.686 0 0 0 130.6 67.75 Q 133.621 70.175 138.663 70.672 A 27.914 27.914 0 0 0 141.4 70.8 A 25.159 25.159 0 0 0 146.847 70.237 A 19.138 19.138 0 0 0 152.3 68.15 Q 156.9 65.5 159.35 60.6 A 22.379 22.379 0 0 0 161.297 54.672 Q 161.8 51.981 161.8 48.9 Z" vector-effect="non-scaling-stroke"/></svg>