<svg xmlns="http://www.w3.org/2000/svg" viewBox="0 0.0007450403645634651 573 72.70075988769531"><path d="M 422.2 23.301 L 418.5 23.301 A 20.345 20.345 0 0 0 417.633 17.266 A 17.621 17.621 0 0 0 415.6 12.901 Q 412.7 8.401 407.7 5.951 A 24.245 24.245 0 0 0 398.664 3.573 A 29.046 29.046 0 0 0 396.6 3.501 A 30.343 30.343 0 0 0 388.894 4.457 A 27.465 27.465 0 0 0 386.5 5.201 A 18.725 18.725 0 0 0 381.536 7.854 A 16.584 16.584 0 0 0 378.85 10.401 A 12.388 12.388 0 0 0 376.09 16.625 A 16.84 16.84 0 0 0 375.9 19.201 A 13.314 13.314 0 0 0 376.286 22.495 A 9.404 9.404 0 0 0 378.7 26.851 A 16.338 16.338 0 0 0 382.864 29.886 A 21.635 21.635 0 0 0 386 31.201 Q 390.065 32.556 397.067 34.074 A 236.547 236.547 0 0 0 398.6 34.401 Q 405.359 35.802 409.638 37.101 A 53.769 53.769 0 0 1 411.35 37.651 Q 415.9 39.201 419.05 42.801 Q 421.771 45.91 422.142 51.184 A 24.498 24.498 0 0 1 422.2 52.901 A 20.299 20.299 0 0 1 421.54 58.196 A 15.861 15.861 0 0 1 418.75 63.851 A 20.355 20.355 0 0 1 410.99 69.916 A 24.7 24.7 0 0 1 409.6 70.501 A 33.205 33.205 0 0 1 399.728 72.62 A 39.153 39.153 0 0 1 397.2 72.701 A 37.695 37.695 0 0 1 389.629 71.973 A 29.045 29.045 0 0 1 382.6 69.601 A 23.417 23.417 0 0 1 375.877 64.73 A 21.649 21.649 0 0 1 372.95 60.851 A 24.03 24.03 0 0 1 369.738 50.798 A 29.789 29.789 0 0 1 369.6 47.901 L 373.3 47.901 A 24.279 24.279 0 0 0 374.007 53.879 A 19.591 19.591 0 0 0 376.15 59.101 A 18.841 18.841 0 0 0 383.41 66.035 A 22.986 22.986 0 0 0 384.4 66.551 A 25.12 25.12 0 0 0 391.108 68.693 A 34.822 34.822 0 0 0 397.2 69.201 A 31.677 31.677 0 0 0 404.031 68.502 A 22.296 22.296 0 0 0 412.45 64.801 Q 418.203 60.617 418.485 53.539 A 18.521 18.521 0 0 0 418.5 52.801 A 16.677 16.677 0 0 0 418.227 49.681 Q 417.888 47.907 417.132 46.519 A 8.476 8.476 0 0 0 415.9 44.801 A 14.599 14.599 0 0 0 410.316 41.087 A 17.569 17.569 0 0 0 409.35 40.751 Q 406.326 39.794 400.986 38.631 A 246.616 246.616 0 0 0 397.5 37.901 Q 389 36.201 383.65 34.151 Q 378.3 32.101 375.25 28.551 A 12.382 12.382 0 0 1 372.498 22.703 A 17.47 17.47 0 0 1 372.2 19.401 A 18.661 18.661 0 0 1 373.165 13.319 A 16.676 16.676 0 0 1 375.25 9.201 A 18.693 18.693 0 0 1 381.231 3.726 A 23.671 23.671 0 0 1 383.85 2.401 A 28.531 28.531 0 0 1 390.852 0.428 A 38.345 38.345 0 0 1 396.7 0.001 Q 403.7 0.001 409.55 2.951 Q 415.4 5.901 418.8 11.201 A 21.594 21.594 0 0 1 422.165 21.935 A 26.326 26.326 0 0 1 422.2 23.301 Z M 150 71.201 L 150 1.601 L 199 1.601 L 199 5.301 L 153.7 5.301 L 153.7 33.501 L 193.1 33.501 L 193.1 37.201 L 153.7 37.201 L 153.7 67.501 L 199 67.501 L 199 71.201 L 150 71.201 Z M 444 1.601 L 447.7 1.601 L 447.7 48.701 L 494.9 1.601 L 500.1 1.601 L 471 30.601 L 500 71.201 L 495.6 71.201 L 468.4 33.201 L 447.7 53.901 L 447.7 71.201 L 444 71.201 L 444 1.601 Z M 333.1 46.501 L 350.8 71.201 L 346.4 71.201 L 329.3 47.201 L 326.1 47.301 L 301 47.301 L 301 71.201 L 297.3 71.201 L 297.3 1.601 L 323.8 1.601 A 59.758 59.758 0 0 1 326.924 1.678 Q 328.46 1.759 329.805 1.923 A 30.566 30.566 0 0 1 331.35 2.151 A 24.562 24.562 0 0 1 335.248 3.153 A 20.896 20.896 0 0 1 337.1 3.901 Q 343.1 6.701 346.55 12.201 Q 350 17.701 350 24.401 Q 350 32.201 345.25 38.351 Q 340.5 44.501 333.1 46.501 Z M 56 1.601 L 27 30.601 L 56 71.201 L 0 71.201 L 0 1.601 L 56 1.601 Z M 515 1.601 L 519.4 1.601 L 544.1 38.801 L 568.6 1.601 L 573 1.601 L 545.9 42.701 L 545.9 71.201 L 542.2 71.201 L 542.2 42.701 L 515 1.601 Z M 217.5 71.201 L 246.1 1.601 L 250 1.601 L 278.6 71.201 L 274.6 71.201 L 265.2 48.201 L 230.9 48.201 L 221.4 71.201 L 217.5 71.201 Z M 130.7 71.201 L 78.5 71.201 L 78.5 1.601 L 82.2 1.601 L 82.2 67.501 L 130.7 67.501 L 130.7 71.201 Z M 301 43.601 L 327.1 43.601 Q 332.3 43.601 336.7 41.001 Q 341.1 38.401 343.7 34.001 Q 346.3 29.601 346.3 24.401 Q 346.3 18.601 343.25 13.901 Q 340.2 9.201 334.8 6.901 Q 330.9 5.301 323.8 5.301 L 301 5.301 L 301 43.601 Z M 48.9 67.501 L 24.4 33.201 L 3.7 53.901 L 3.7 67.501 L 48.9 67.501 Z M 248 6.401 L 232.4 44.601 L 263.7 44.601 L 248 6.401 Z" vector-effect="non-scaling-stroke"/></svg>